<svg width="30" height="20" viewBox="0 0 30 20" fill="none" xmlns="http://www.w3.org/2000/svg">
<path d="M20.3931 19.9999C25.6918 20.0267 30.0369 15.5427 29.9998 10.0868C30.0364 4.48186 25.6918 -0.00175914 20.3931 5.17776e-07H9.77553C4.41327 -0.00131923 0.0682113 4.48186 0 10.0868C0.0682113 15.5427 4.41327 20.0263 9.77511 19.9999H20.3931V19.9999Z" fill="#9E9E9E"/>
<path d="M0.674561 10.0869C0.727424 4.85758 4.77705 0.678382 9.77566 0.695978C14.7687 0.678382 18.8188 4.85758 18.8763 10.0873C18.8188 15.1679 14.7687 19.3471 9.77566 19.3044C4.77705 19.3471 0.727424 15.1674 0.674561 10.0869V10.0869Z" fill="white"/>
<path d="M7.75288 4.52185C5.65836 5.49714 4.08695 7.58234 4.04517 10.0868C4.08695 12.4971 5.58333 14.6201 7.75288 15.4779V4.52185ZM11.7978 15.4784C13.9622 14.6205 15.4582 12.4971 15.5055 10.0872C15.4582 7.52867 13.9618 5.4052 11.7978 4.52229V15.4784Z" fill="#9E9E9E"/>
</svg>
