<svg width="50" height="20" viewBox="0 0 50 20" fill="none" xmlns="http://www.w3.org/2000/svg">
<g clip-path="url(#clip0_1409_312)">
<path d="M13.7284 0H8.54745C6.25814 0.0994841 4.38688 0.946948 3.84657 2.69455C3.56484 3.60596 3.40979 4.60693 3.18948 5.55172C2.06951 10.3556 1.07643 15.292 0.00512695 20H40.3408C43.4591 20 45.6003 19.3943 46.1788 17.1195C46.4476 16.0628 46.7051 14.866 46.9623 13.705C47.9648 9.17833 48.9682 4.65194 49.9951 0H13.7284Z" fill="#A7A7A7"/>
<path d="M13.3239 7.10805C13.5406 6.97087 13.8196 6.34609 13.5008 6.08597C13.3998 6.00363 13.231 5.97972 12.9953 6.01634C12.7768 6.05026 12.6511 6.11853 12.5657 6.22541C12.4285 6.39723 12.3026 6.91558 12.5152 7.10814C12.7222 7.29557 13.186 7.19527 13.3239 7.10805V7.10805ZM10.2406 6.08597C10.0854 7.01182 9.91049 7.91962 9.73513 8.82697C8.60927 8.83789 7.45977 8.87802 6.37385 8.8037C6.57894 7.91601 6.72604 6.97493 6.92986 6.08597H5.71676C5.28253 8.35039 4.88745 10.651 4.40259 12.8688H5.641C5.8352 11.7312 6.01694 10.5819 6.27277 9.50063C7.32866 9.47673 8.59416 9.43506 9.60884 9.5239C9.39962 10.648 9.14684 11.7318 8.95175 12.8688H10.1902C10.5882 10.571 11.0073 8.29275 11.5044 6.08597H10.2406V6.08597ZM27.7548 8.03723C26.7912 7.67952 26.0336 8.284 25.6824 8.85024C25.7621 8.59833 25.7949 8.30331 25.8595 8.03723H24.899C24.6642 9.71078 24.3182 11.282 23.9893 12.8688H25.0761C25.2284 11.9269 25.2941 10.6572 25.632 9.75615C25.902 9.03613 26.6088 8.42272 27.6286 8.75734C27.6427 8.49172 27.7254 8.28896 27.7548 8.03723V8.03723ZM28.3612 11.7307C28.261 11.4927 28.2352 11.1 28.2602 10.8014C28.3164 10.1303 28.5825 9.31312 28.9932 8.94314C29.5599 8.43255 30.6787 8.51707 31.5711 8.80379C31.5987 8.52735 31.6591 8.28076 31.6975 8.01405C30.234 7.79434 28.8452 7.93107 28.1088 8.64126C27.3879 9.33648 26.9154 10.9344 27.2494 11.9398C27.6403 13.1162 29.3936 13.1802 30.8129 12.7296C30.8757 12.4931 30.909 12.2295 30.9645 11.9863C30.1888 12.3565 28.706 12.549 28.3612 11.7307V11.7307ZM40.5681 8.06041C39.6076 7.619 38.808 8.35968 38.4958 8.8037C38.5847 8.57587 38.5898 8.27075 38.6726 8.03714H37.7123C37.4534 9.69617 37.1413 11.3063 36.7773 12.8687H37.8894C37.8963 12.2284 38.0332 11.7547 38.1419 11.1267C38.3743 9.78574 38.7156 8.31521 40.4167 8.75725C40.473 8.5305 40.4964 8.27327 40.5681 8.06041ZM12.2119 8.03723C12.1824 8.04111 12.1844 8.07394 12.1865 8.10686C11.9471 9.75282 11.623 11.3211 11.2768 12.8687H12.3635C12.6246 11.2117 12.9237 9.58974 13.2986 8.03714L12.2119 8.03723V8.03723ZM21.765 7.94433C20.9798 7.99998 20.316 8.20761 19.8443 8.66444C19.2657 9.22464 18.7973 10.4633 18.9345 11.5913C19.1304 13.2006 21.3104 13.1428 23.054 12.7528C23.0837 12.4703 23.1581 12.2288 23.2056 11.9629C22.4874 12.21 21.2402 12.5548 20.5013 12.1256C19.9435 11.8014 19.9403 10.9807 20.1222 10.2673C21.2941 10.233 22.5121 10.2395 23.6857 10.2673C23.76 9.76165 23.9731 9.21039 23.7867 8.71098C23.541 8.05166 22.6608 7.88084 21.765 7.94433ZM22.8012 9.7097H20.2485C20.3294 9.17034 20.8573 8.5775 21.6892 8.54827C22.4721 8.52076 23.0326 8.81245 22.8012 9.7097V9.7097ZM17.6456 8.03723C16.7258 7.71966 15.6049 8.09875 15.1188 8.45934C15.1206 8.47522 15.1072 8.47738 15.0929 8.47855C15.1011 8.47215 15.1102 8.46574 15.1188 8.45934C15.1187 8.45801 15.1186 8.45669 15.1183 8.45537C15.1265 8.30033 15.1858 8.19228 15.1941 8.03723H14.259C13.8693 10.4201 13.4072 12.7363 12.9196 15.0291H14.0063C14.1636 14.1362 14.2674 13.1941 14.4865 12.3578C14.7347 13.2374 16.3553 13.0693 17.0391 12.7295C18.45 12.0281 19.5382 8.6906 17.6456 8.03723V8.03723ZM16.7863 11.9629C16.2049 12.5289 14.7755 12.5204 14.6634 11.568C14.6146 11.1536 14.7825 10.7192 14.8657 10.2905C14.9496 9.85654 15.0102 9.4402 15.093 9.05931C15.6657 8.41659 17.3485 8.33893 17.5193 9.40773C17.6674 10.3356 17.2678 11.4942 16.7863 11.9629V11.9629ZM44.6117 5.94662C44.5186 6.69722 44.3941 7.41904 44.2328 8.10686C41.567 7.33128 39.9323 9.13399 39.9617 11.359C39.9675 11.7893 40.048 12.216 40.3407 12.5204C40.8455 13.0448 42.2902 13.1704 43.0198 12.7294C43.1609 12.6441 43.3052 12.4888 43.3987 12.3811C43.4691 12.3 43.5807 12.0876 43.601 12.1487C43.5625 12.3844 43.5052 12.6029 43.5 12.8687H44.4856C44.6757 10.3642 45.2629 8.22511 45.6987 5.94653H44.6118V5.94662H44.6117ZM42.1856 12.3345C41.4541 12.349 41.0903 11.9328 41.0735 11.2428C41.0444 10.0344 41.6211 8.69186 42.7922 8.57145C43.3374 8.51544 43.7322 8.63197 44.1317 8.75734C43.7649 10.1148 43.8972 12.3008 42.1856 12.3345V12.3345ZM32.8093 8.03723C32.7558 8.31323 32.6737 8.56297 32.6072 8.82697C33.2484 8.67914 35.2453 8.22601 35.4378 9.01277C35.5016 9.27415 35.3914 9.55186 35.3114 9.75615C33.5057 9.59894 32.034 9.87467 31.6467 11.0569C31.3875 11.8488 31.6758 12.6281 32.2281 12.8457C33.2917 13.2645 34.5855 12.7847 35.0334 12.1256C34.9868 12.3537 34.9428 12.5844 34.9577 12.8688H35.8927C35.9027 12.0457 36.033 11.3795 36.1707 10.6388C36.2881 10.0081 36.509 9.38365 36.474 8.82697C36.3935 7.55208 34.0956 8.00305 32.8093 8.03723V8.03723ZM34.5784 11.9397C34.0184 12.4436 32.4463 12.5867 32.6072 11.3822C32.7406 10.3817 33.9258 10.1692 35.2101 10.3136C35.1147 10.8608 35.0052 11.5557 34.5784 11.9397V11.9397Z" fill="white"/>
</g>
<defs>
<clipPath id="clip0_1409_312">
<rect width="50" height="20" fill="white"/>
</clipPath>
</defs>
</svg>
