<svg width="40" height="40" viewBox="0 0 40 40" fill="none" xmlns="http://www.w3.org/2000/svg">
<path d="M28.8037 15.4807H31.3538C31.4267 15.4807 31.5967 15.4607 31.6695 15.4607C32.1553 15.3805 32.5681 15.0198 32.5681 14.5187C32.5681 14.0378 32.1553 13.677 31.6695 13.5768C31.5967 13.5568 31.4509 13.5568 31.3538 13.5568H28.8037V15.4807Z" fill="#8E8E8E"/>
<path d="M31.0626 2.19336C28.634 2.19336 26.6425 3.8167 26.6425 5.84087V9.62868H32.8841C33.0298 9.62868 33.1998 9.62868 33.3213 9.64872C34.7299 9.70884 35.7742 10.3101 35.7742 11.3522C35.7742 12.1739 35.0699 12.8754 33.7584 13.0157V13.0557C35.1913 13.1359 36.2842 13.7973 36.2842 14.8194C36.2842 15.9216 35.0699 16.6431 33.467 16.6431H26.6182V24.0584H33.1027C35.5313 24.0584 37.5228 22.4351 37.5228 20.4109V2.19336H31.0626Z" fill="#8E8E8E"/>
<path d="M32.2524 11.5926C32.2524 11.1116 31.8395 10.791 31.3538 10.7309C31.3052 10.7309 31.1838 10.7108 31.1109 10.7108H28.8037V12.4744H31.1109C31.1838 12.4744 31.3295 12.4744 31.3538 12.4544C31.8395 12.3943 32.2524 12.0736 32.2524 11.5926V11.5926Z" fill="#8E8E8E"/>
<path d="M6.63048 2.19336C4.20182 2.19336 2.21032 3.8167 2.21032 5.84087V14.8394C3.44894 15.3404 4.73613 15.6611 6.02332 15.6611C7.55337 15.6611 8.37911 14.8995 8.37911 13.8574V9.60864H12.1678V13.8373C12.1678 15.4807 10.9292 16.8235 6.72763 16.8235C4.17753 16.8235 2.18604 16.3625 2.18604 16.3625V24.0384H8.67055C11.0992 24.0384 13.0907 22.415 13.0907 20.3908V2.19336H6.63048Z" fill="#8E8E8E"/>
<path d="M18.8464 2.19336C16.4178 2.19336 14.4263 3.8167 14.4263 5.84087V10.6107C15.5435 9.82909 17.4864 9.32806 20.6193 9.44831C22.2951 9.50843 24.0923 9.88921 24.0923 9.88921V11.4324C23.1937 11.0516 22.1251 10.7109 20.7408 10.6307C18.3607 10.4905 16.9278 11.4524 16.9278 13.1359C16.9278 14.8394 18.3607 15.8014 20.7408 15.6411C22.1251 15.5609 23.1937 15.2002 24.0923 14.8394V16.3826C24.0923 16.3826 22.3194 16.7634 20.6193 16.8235C17.4864 16.9437 15.5435 16.4427 14.4263 15.6611V24.0784H20.9108C23.3394 24.0784 25.3309 22.4551 25.3309 20.4309V2.19336H18.8464Z" fill="#8E8E8E"/>
</svg>
