<svg width="35" height="20" viewBox="0 0 35 20" fill="none" xmlns="http://www.w3.org/2000/svg">
<path fill-rule="evenodd" clip-rule="evenodd" d="M17.5 17.4117C18.5868 16.4718 19.4544 15.3269 20.0472 14.0506C20.6399 12.7742 20.9447 11.3945 20.942 9.99991C20.9448 8.60533 20.64 7.22561 20.0472 5.94924C19.4545 4.67287 18.5868 3.52804 17.5 2.58816C15.6416 0.980004 13.1763 0 10.4709 0C4.68817 0 0 4.47706 0 9.99991C0 15.5226 4.68817 19.9998 10.4709 19.9998C13.1763 19.9998 15.6418 19.0198 17.5 17.4117Z" fill="white"/>
<path fill-rule="evenodd" clip-rule="evenodd" d="M24.529 0C21.8237 0 19.358 0.980004 17.5 2.58816C17.121 2.91639 16.7677 3.27023 16.4428 3.64691H18.5564C18.8466 3.98312 19.1134 4.33683 19.3552 4.70583H15.6445C15.4212 5.04705 15.2196 5.40066 15.0408 5.76475H19.958C20.1272 6.10936 20.2756 6.46285 20.4023 6.8235H14.5975C14.4757 7.17087 14.3743 7.52432 14.2935 7.88224H20.7065C20.8635 8.5783 20.9425 9.28812 20.9422 9.99991C20.9422 11.1101 20.7521 12.1782 20.4025 13.1761H14.5975C14.7237 13.5369 14.8718 13.8904 15.0408 14.2351H19.958C19.7796 14.5992 19.5782 14.9528 19.355 15.294H15.6445C15.8861 15.663 16.1527 16.0167 16.4426 16.3529H18.5564C18.2319 16.7298 17.8788 17.0837 17.5 17.4118C19.358 19.02 21.8237 20 24.529 20C30.3116 20 35 15.5228 35 10.0001C35 4.47706 30.3116 0 24.529 0Z" fill="#9E9E9E"/>
</svg>
